<svg viewBox="0 0 800 800" xmlns="http://www.w3.org/2000/svg"><path d="M400,219.20645692258097 L399.99999999999994,38.567706697565654 M-69.57613132267409,489.4156653852079 L-70.09846294817208,308.47468263270355 M400,219.20645692258097 L-69.57613132267409,489.4156653852079 M399.99999999999994,38.567706697565654 L-70.09846294817208,308.47468263270355 M869.576131322674,489.4156653852079 L870.098462948172,308.4746826327036 M869.576131322674,489.4156653852079 L400,219.20645692258097 M870.098462948172,308.4746826327036 L399.99999999999994,38.567706697565654 M400,761.4322933024343 L400,580.1890713531216 M-69.57613132267409,489.4156653852079 L400,761.4322933024343 M-70.09846294817208,308.47468263270355 L400,580.1890713531216 M400,761.4322933024343 L869.576131322674,489.4156653852079 M400,580.1890713531216 L870.098462948172,308.4746826327036 M400,128.33698948176414 L86.60102470121859,308.47468263270355 M86.60102470121859,308.47468263270355 L400,489.4156653852079 M400,489.4156653852079 L713.3989752987814,308.4746826327036 M713.3989752987814,308.4746826327036 L400,128.33698948176414 M400,218.7568575740574 L400,128.33698948176414 M86.77523202489783,398.9954633315662 L86.60102470121859,308.47468263270355 M400,218.7568575740574 L86.77523202489783,398.9954633315662 M400,580.0373609253202 L400,489.4156653852079 M86.77523202489783,398.9954633315662 L400,580.0373609253202 M713.2247679751022,398.9954633315662 L713.3989752987814,308.4746826327036 M400,580.0373609253202 L713.2247679751022,398.9954633315662 M713.2247679751022,398.9954633315662 L400,218.7568575740574" stroke="black"  stroke-width="4"  fill="red"/></svg>