<svg viewBox="0 0 800 800" xmlns="http://www.w3.org/2000/svg"><path d="M270.9826769586886,190.13200803380343 L224.1931215305412,216.99672204433773 M224.1931215305412,216.99672204433773 L224.15431989973305,189.9573487299117 M270.9542476104278,163.0986575217717 L224.15431989973305,189.9573487299117 M270.9826769586886,190.13200803380343 L270.9542476104278,163.0986575217717 M857.416052768538,527.659390230345 L270.9826769586886,190.13200803380343 M810.627193582108,554.8238644222163 L857.416052768538,527.659390230345 M810.627193582108,554.8238644222163 L224.1931215305412,216.99672204433773 M224.15431989973305,189.9573487299117 L810.71874128477,527.7092028543154 M810.627193582108,554.8238644222163 L810.71874128477,527.7092028543154 M857.5179722891105,500.55075177336965 L270.9542476104278,163.0986575217717 M810.71874128477,527.7092028543154 L857.5179722891105,500.55075177336965 M857.416052768538,527.659390230345 L857.5179722891105,500.55075177336965" stroke="black"  stroke-width="4"  fill="red"/>
<path d="M-10.377478311403081,351.67789228350523 L-57.41654988108377,378.6858686038 M-57.41654988108377,378.6858686038 L-57.51797228911056,351.6103573532626 M-10.468417657988482,324.6084041209921 L-57.51797228911056,351.6103573532626 M-10.377478311403081,351.67789228350523 L-10.468417657988482,324.6084041209921 M-10.377478311403081,351.67789228350523 L576.0566106335194,691.009842398084 M529.0168452548103,718.3199866255845 L576.0566106335194,691.009842398084 M-57.41654988108377,378.6858686038 L529.0168452548103,718.3199866255845 M529.0168452548103,718.3199866255845 L529.0457717328054,691.1691871367971 M-57.51797228911056,351.6103573532626 L529.0457717328054,691.1691871367971 M576.096020635429,663.8650657710057 L-10.468417657988482,324.6084041209921 M529.0457717328054,691.1691871367971 L576.096020635429,663.8650657710057 M576.0566106335194,691.009842398084 L576.096020635429,663.8650657710057" stroke="black"  stroke-width="4"  fill="red"/>
<path d="M224.1931215305412,216.99672204433773 L223.99894140251354,81.68001337441547 M-10.377478311403081,351.67789228350523 L-10.832578994786616,216.21020943579217 M224.1931215305412,216.99672204433773 L-10.377478311403081,351.67789228350523 M223.99894140251354,81.68001337441547 L-10.832578994786616,216.21020943579217 M576.0566106335194,691.009842398084 L576.2538366788104,555.164709562516 M-10.377478311403081,351.67789228350523 L576.0566106335194,691.009842398084 M-10.832578994786616,216.21020943579217 L576.2538366788104,555.164709562516 M810.627193582108,554.8238644222163 L811.0853401074636,419.1297112943868 M576.0566106335194,691.009842398084 L810.627193582108,554.8238644222163 M576.2538366788104,555.164709562516 L811.0853401074636,419.1297112943868 M810.627193582108,554.8238644222163 L224.1931215305412,216.99672204433773 M811.0853401074636,419.1297112943868 L223.99894140251354,81.68001337441547" stroke="black"  stroke-width="4"  fill="red"/></svg>