<svg viewBox="0 0 800 800" xmlns="http://www.w3.org/2000/svg"><path d="M645.4869929896016,258.24489447236454 L645.7582978849713,100.8759629777681 M18.2886129583556,619.9561466274183 L17.862246902418462,462.18353052212166 M645.4869929896016,258.24489447236454 L18.2886129583556,619.9561466274183 M645.7582978849713,100.8759629777681 L17.862246902418462,462.18353052212166 M17.375124818779057,635.2546903192574 L16.947648402952098,477.4650908660421 M18.2886129583556,619.9561466274183 L15.673850272265952,621.8283481687554 M15.673850272265952,621.8283481687554 L13.809416766846539,623.9795107898403 M13.809416766846539,623.9795107898403 L12.78160246393577,626.3102109862325 M12.78160246393577,626.3102109862325 L12.637955528225746,628.712747627364 M12.637955528225746,628.712747627364 L13.385237514276298,631.0760401843165 M13.385237514276298,631.0760401843165 L14.98898372563616,633.2908299102066 M14.98898372563616,633.2908299102066 L17.375124818779057,635.2546903192574 M17.862246902418462,462.18353052212166 L15.244558523599892,464.0536532851225 M15.244558523599892,464.0536532851225 L13.37803381968098,466.2024275222486 M13.37803381968098,466.2024275222486 L12.349059656268992,468.53054016226776 M12.349059656268992,468.53054016226776 L12.205237941238977,470.93040967214876 M12.205237941238977,470.93040967214876 L12.953338542766119,473.29107884057913 M12.953338542766119,473.29107884057913 L14.55885910401048,475.5034101835151 M14.55885910401048,475.5034101835151 L16.947648402952098,477.4650908660421 M18.20341571439417,635.7667846852078 L17.77685961335652,477.9766168684694 M17.375124818779057,635.2546903192574 L18.20341571439417,635.7667846852078 M16.947648402952098,477.4650908660421 L17.77685961335652,477.9766168684694 M127.27995874320419,699.0798257173362 L126.97473191927872,541.2194513694428 M18.20341571439417,635.7667846852078 L127.27995874320419,699.0798257173362 M17.77685961335652,477.9766168684694 L126.97473191927872,541.2194513694428 M129.0984567426434,700.0101680644186 L128.79525506594666,542.1487630163564 M127.27995874320419,699.0798257173362 L129.0984567426434,700.0101680644186 M126.97473191927872,541.2194513694428 L128.79525506594666,542.1487630163564 M154.63438670340054,699.0798257173365 L154.35968256186766,541.2194513694428 M129.0984567426434,700.0101680644186 L133.0811562258167,701.3924781567043 M133.0811562258167,701.3924781567043 L137.52040165264827,702.1839840855978 M137.52040165264827,702.1839840855978 L142.15983423816812,702.3389352664144 M142.15983423816812,702.3389352664144 L146.73146247265979,701.8483935726399 M146.73146247265979,701.8483935726399 L150.97127680079308,700.7406776467076 M150.97127680079308,700.7406776467076 L154.63438670340054,699.0798257173365 M128.79525506594666,542.1487630163564 L132.78239277517162,543.5295417362327 M132.78239277517162,543.5295417362327 L137.2265884969318,544.3201708336196 M137.2265884969318,544.3201708336196 L141.87119746145106,544.4749503615757 M141.87119746145106,544.4749503615757 L146.44792901429614,543.9849520859575 M146.44792901429614,543.9849520859575 L150.69247875680173,542.8784633066148 M150.69247875680173,542.8784633066148 L154.35968256186766,541.2194513694428 M781.832775407084,336.5638716594564 L782.2557422555097,179.10718488698743 M154.63438670340054,699.0798257173365 L781.832775407084,336.5638716594564 M154.35968256186766,541.2194513694428 L782.2557422555097,179.10718488698743 M782.5784065796101,321.3937536052092 L783.0021101449034,163.9540497061423 M781.832775407084,336.5638716594564 L784.4169074493733,334.7066857622522 M784.4169074493733,334.7066857622522 L786.2504895035511,332.5730175104518 M786.2504895035511,332.5730175104518 L787.2487646817257,330.2615630404682 M787.2487646817257,330.2615630404682 L787.3657057346552,327.87918233435664 M787.3657057346552,327.87918233435664 L786.5959625430729,325.53603040299345 M786.5959625430729,325.53603040299345 L784.9752030612243,323.3403982758151 M784.9752030612243,323.3403982758151 L782.5784065796101,321.3937536052092 M782.2557422555097,179.10718488698743 L784.8427318081739,177.2520777126117 M784.8427318081739,177.2520777126117 L786.6783363869164,175.12079778010843 M786.6783363869164,175.12079778010843 L787.6777056727573,172.81193079537417 M787.6777056727573,172.81193079537417 L787.7947620587611,170.43221714603766 M787.7947620587611,170.43221714603766 L787.0241502538445,168.09168852879094 M787.0241502538445,168.09168852879094 L785.4015785510537,165.89851471380442 M785.4015785510537,165.89851471380442 L783.0021101449034,163.9540497061423 M781.7482945784672,320.8861837205414 L782.1710737751745,163.44704816828954 M782.5784065796101,321.3937536052092 L781.7482945784672,320.8861837205414 M783.0021101449034,163.9540497061423 L782.1710737751745,163.44704816828954 M672.6717435056497,258.2448944723646 L672.9731933893939,100.8759629777681 M781.7482945784672,320.8861837205414 L672.6717435056497,258.2448944723646 M782.1710737751745,163.44704816828954 L672.9731933893939,100.8759629777681 M670.8574775837192,257.3260819965749 L671.1569117403332,99.95818115981592 M672.6717435056497,258.2448944723646 L670.8574775837192,257.3260819965749 M672.9731933893939,100.8759629777681 L671.1569117403332,99.95818115981592 M670.8574775837192,257.3260819965749 L666.8892680742536,255.9609916464315 M666.8892680742536,255.9609916464315 L662.4720355872462,255.17939334637958 M662.4720355872462,255.17939334637958 L657.860665278996,255.02638582028172 M657.860665278996,255.02638582028172 L653.3212843855986,255.5107788865654 M653.3212843855986,255.5107788865654 L649.1158119388066,256.60465934250624 M649.1158119388066,256.60465934250624 L645.4869929896016,258.24489447236454 M671.1569117403332,99.95818115981592 L667.184296258364,98.59462211886859 M667.184296258364,98.59462211886859 L662.7621624759495,97.813900613957 M662.7621624759495,97.813900613957 L658.1456782539777,97.66106473358565 M658.1456782539777,97.66106473358565 L653.6012658234681,98.144914404281 M653.6012658234681,98.144914404281 L649.3911344060768,99.23756776441877 M649.3911344060768,99.23756776441877 L645.7582978849713,100.8759629777681" stroke="black"  stroke-width="4"  fill="red"/></svg>