<svg viewBox="0 0 800 800" xmlns="http://www.w3.org/2000/svg"><path d="M400.00000000000006,366.50354957118674 L400,323.1240832584953 M234.5232065535381,420.46337352112 L234.15466135655268,376.2379498828673 M400.00000000000006,366.50354957118674 L234.5232065535381,420.46337352112 M400,323.1240832584953 L234.15466135655268,376.2379498828673 M565.4767934464619,420.46337352112 L565.8453386434473,376.2379498828673 M565.4767934464619,420.46337352112 L400.00000000000006,366.50354957118674 M565.8453386434473,376.2379498828673 L400,323.1240832584953 M400,476.87591674150474 L400,431.7715826404682 M234.5232065535381,420.46337352112 L400,476.87591674150474 M234.15466135655268,376.2379498828673 L400,431.7715826404682 M400,476.87591674150474 L565.4767934464619,420.46337352112 M400,431.7715826404682 L565.8453386434473,376.2379498828673 M400,344.0894688535222 L300.49279681393165,376.2379498828673 M300.49279681393165,376.2379498828673 L400,409.2572701274544 M400,409.2572701274544 L499.50720318606847,376.2379498828673 M499.50720318606847,376.2379498828673 L400,344.0894688535222 M400,365.97046678792725 L400,344.0894688535222 M300.6034833580763,398.37525871180355 L300.49279681393165,376.2379498828673 M400,365.97046678792725 L300.6034833580763,398.37525871180355 M400,431.65684320182766 L400,409.2572701274544 M300.6034833580763,398.37525871180355 L400,431.65684320182766 M499.39651664192377,398.37525871180355 L499.50720318606847,376.2379498828673 M400,431.65684320182766 L499.39651664192377,398.37525871180355 M499.39651664192377,398.37525871180355 L400,365.97046678792725" stroke="black"  stroke-width="4"  fill="red"/></svg>